<?xml version="1.0" encoding="utf-8"?>
<!-- Generator: Adobe Illustrator 19.2.1, SVG Export Plug-In . SVG Version: 6.00 Build 0)  -->
<svg version="1.1" id="Ebene_1" xmlns="http://www.w3.org/2000/svg" xmlns:xlink="http://www.w3.org/1999/xlink" x="0px" y="0px"
	 width="100px" height="102px" viewBox="0 0 100 102" style="enable-background:new 0 0 100 102;" xml:space="preserve">
<style type="text/css">
	.st0{fill:#EA002A;}
	.st1{fill:#009EE3;}
	.st2{fill:#FFFFFF;}
</style>
<path class="st0" d="M20.5,51c1.3-6.6,5.4-11.4,10.5-15.7c12.4-10,38.7-23.9,54.7-19.8c12,3.1,15.1,13.2,14.1,24.6
	c-0.4,4.1-1.8,11.7-2.9,16c-4.3,16.5-13.7,41.4-32.8,45.3c-2.8,0.6-6.4,0.4-9.3-0.3c-4.4-1.1-9.1-3.7-11.9-5.7
	C40.2,93.3,15.9,73.4,20.5,51z"/>
<g>
	<path class="st1" d="M17.7,90.1c-6.3-3.9-9.7-10-12.1-17C0.1,56.4-4,23.8,6.5,8.9C14.4-2.4,26-1.6,37.3,3.9
		c4.1,2,11.4,6.4,15.4,9.3c15.4,10.9,37.4,30.3,34,51.5c-0.5,3.1-2,6.8-3.9,9.5c-2.9,4.1-7.3,8-10.6,10C69,86.2,39,103.5,17.7,90.1z
		"/>
</g>
<g>
	<g>
		<path class="st2" d="M19.4,70.9c-0.8,0-1.5-0.3-2-0.8c-0.5-0.5-0.8-1.2-0.8-2V40.1h-7c-0.8,0-1.5-0.3-2-0.8
			c-0.6-0.5-0.9-1.3-0.9-2.1c0-0.8,0.3-1.5,0.8-2.1c0.6-0.6,1.3-0.8,2.1-0.8h19.6c0.8,0,1.5,0.3,2.1,0.9c0.5,0.5,0.8,1.2,0.8,2
			c0,0.8-0.3,1.5-0.8,2c-0.5,0.5-1.2,0.8-2,0.8h-6.9V68c0,0.8-0.3,1.5-0.9,2.1C20.9,70.6,20.2,70.9,19.4,70.9z"/>
	</g>
	<g>
		<path class="st2" d="M37.5,70.9c-0.8,0-1.5-0.3-2-0.8c-0.6-0.5-0.9-1.3-0.9-2.1v-25c0-1.2,0.2-2.3,0.7-3.4c0.5-1.1,1.1-2,1.9-2.8
			c0.8-0.7,1.7-1.3,2.7-1.8c1.1-0.5,2.2-0.7,3.4-0.7H53c0.8,0,1.5,0.3,2,0.8c0.6,0.5,0.9,1.3,0.9,2.1c0,0.8-0.3,1.5-0.9,2.1
			c-0.5,0.5-1.2,0.8-2,0.8h-9.7c-0.4,0-0.8,0.1-1.1,0.2c-0.4,0.2-0.7,0.4-1,0.7c-0.3,0.3-0.5,0.6-0.7,1c-0.1,0.3-0.2,0.7-0.2,1.1V49
			H50c0.8,0,1.5,0.3,2,0.8c0.6,0.5,0.9,1.3,0.9,2.1c0,0.8-0.3,1.5-0.9,2.1c-0.6,0.5-1.2,0.8-2,0.8h-9.6V68c0,0.8-0.3,1.5-0.8,2
			C39,70.6,38.3,70.9,37.5,70.9z"/>
	</g>
	<g>
		<path class="st2" d="M68.1,70.8c-1.2,0-2.3-0.2-3.4-0.7c-1-0.4-1.9-1.1-2.7-1.8c-0.8-0.8-1.4-1.7-1.9-2.8
			c-0.5-1.1-0.7-2.2-0.7-3.4V37.2c0-0.8,0.3-1.5,0.9-2.1c0.5-0.5,1.2-0.8,2-0.8c0.8,0,1.5,0.3,2,0.8c0.5,0.5,0.8,1.2,0.8,2v24.9
			c0,0.4,0.1,0.8,0.2,1.1c0.2,0.4,0.4,0.7,0.6,1c0.3,0.3,0.6,0.5,1,0.7c0.3,0.1,0.7,0.2,1.1,0.2h8.4c0.8,0,1.5,0.3,2,0.8
			c0.6,0.5,0.9,1.3,0.9,2.1c0,0.8-0.3,1.5-0.9,2.1c-0.5,0.5-1.2,0.8-2,0.8H68.1z"/>
	</g>
</g>
</svg>
